<?xml version="1.0" encoding="utf-8"?>
<!-- Generator: Adobe Illustrator 18.1.1, SVG Export Plug-In . SVG Version: 6.00 Build 0)  -->
<svg version="1.1" id="Layer_1" xmlns="http://www.w3.org/2000/svg" xmlns:xlink="http://www.w3.org/1999/xlink" x="0px" y="0px"
	 viewBox="0 0 100 63.6" enable-background="new 0 0 100 63.6" xml:space="preserve">
<path fill="#FFFFFF" d="M95.9,8.8H4C2.5,8.8,1.2,7.5,1.2,6v0c0-1.6,1.3-2.8,2.8-2.8h91.8c1.6,0,2.8,1.3,2.8,2.8v0
	C98.7,7.5,97.4,8.8,95.9,8.8z"/>
<path fill="#FFFFFF" d="M95.9,34.6H4.1c-1.6,0-2.8-1.3-2.8-2.8v0c0-1.6,1.3-2.8,2.8-2.8h91.8c1.6,0,2.8,1.3,2.8,2.8v0
	C98.7,33.4,97.5,34.6,95.9,34.6z"/>
<path fill="#FFFFFF" d="M95.9,61.4H4c-1.6,0-2.8-1.3-2.8-2.8v0c0-1.6,1.3-2.8,2.8-2.8h91.8c1.6,0,2.8,1.3,2.8,2.8v0
	C98.7,60.1,97.4,61.4,95.9,61.4z"/>
</svg>
