<?xml version="1.0" encoding="utf-8"?>
<!-- Generator: Adobe Illustrator 18.1.1, SVG Export Plug-In . SVG Version: 6.00 Build 0)  -->
<svg version="1.1" id="Layer_1" xmlns="http://www.w3.org/2000/svg" xmlns:xlink="http://www.w3.org/1999/xlink" x="0px" y="0px"
	 viewBox="0 575.5 1600 455.5" enable-background="new 0 575.5 1600 455.5" xml:space="preserve">
<path fill="#9A3434" d="M349.9,576.5h353.1c0,0,53.3,7.5,78.9,16c25.6,8.5,178.1,68.3,178.1,68.3l56.5,22.4c0,0,22.4,7.5,38.4,12.8
	c16,5.3,100.3,12.8,100.3,12.8l230.4,18.1c0,0,9.6-1.1,13.9-5.3c4.3-4.3,4.3-4.3,4.3-4.3l150.4,9.6c0,0,41.6-3.2,41.6,73.6
	s-35.2,81.1-35.2,81.1L1408,892.3c0,0,0-6.4-5.3-9.6c-5.3-3.2-17.1-2.1-17.1-2.1l-328.5,29.9c0,0-240,93.9-293.3,106.7
	c-54.4,12.8-82.1,13.9-82.1,13.9H48c0,0-12.8-1.1-26.7-18.1s-16-40.5-17.1-72.5s0-274.1,0-274.1s3.2-50.1,9.6-61.9s9.6-16,20.3-21.3
	s45.9-7.5,45.9-7.5L349.9,576.5z"/>
<g>
	<path fill="#FFFFFF" d="M391.4,752.9c-0.5,8.3-0.9,17.5-0.9,31.4v66.4c0,26.2-5.2,42.3-16.3,52.2c-11.1,10.4-27.2,13.7-41.6,13.7
		c-13.7,0-28.8-3.3-38.1-9.5l5.2-15.8c7.6,4.7,19.4,9,33.6,9c21.3,0,36.9-11.1,36.9-40v-12.8h-0.5c-6.4,10.6-18.7,19.1-36.4,19.1
		c-28.4,0-48.7-24.1-48.7-55.8c0-38.8,25.3-60.8,51.5-60.8c19.9,0,30.7,10.4,35.7,19.9h0.5l0.9-17.3H391.4z M369.8,798.1
		c0-3.5-0.2-6.6-1.2-9.5c-3.8-12.1-13.9-22-29.1-22c-19.9,0-34,16.8-34,43.3c0,22.5,11.3,41.1,33.8,41.1c12.8,0,24.4-8,28.8-21.3
		c1.2-3.5,1.7-7.6,1.7-11.1V798.1z"/>
	<path fill="#FFFFFF" d="M528.5,809.2c0,42.3-29.3,60.8-57,60.8c-31,0-54.8-22.7-54.8-58.9c0-38.3,25.1-60.8,56.7-60.8
		C506.3,750.3,528.5,774.2,528.5,809.2z M437.7,810.4c0,25.1,14.4,44,34.8,44c19.9,0,34.8-18.7,34.8-44.4c0-19.4-9.7-44-34.3-44
		S437.7,788.6,437.7,810.4z"/>
	<path fill="#FFFFFF" d="M550.7,855.3c0-8.5,5.9-14.7,13.9-14.7c8.5,0,13.9,6.1,13.9,14.7c0,8.3-5.4,14.7-13.9,14.7
		C556.4,869.9,550.7,863.6,550.7,855.3z M556.6,821.5L553.3,708H576l-3.3,113.5H556.6z"/>
</g>
</svg>
